# xmcd
#
# Track frame offsets:
#	187
#	14485
#	26450
#	38045
#	69162
#	89577
#	99825
#	108925
#	122545
#
# Disc length: 2090 seconds
#
# Revision: 0
# Processed by: cddbd v1.5.2PL0 Copyright (c) Steve Scherf et al.
# Submitted via: audiograbber 1.83.01
#
DISCID=62082809
DTITLE=Alice Cooper - The Studio Albums 1969-1983 [CD 02) - Easy Action
DYEAR=1970
DGENRE=Rock
TTITLE0=Mr. and Misdemeanor
TTITLE1=Shoe Salesman
TTITLE2=Still No Air
TTITLE3=Below Your Means
TTITLE4=Return Of The Spiders
TTITLE5=Laughing At Me
TTITLE6=Refrigerator Heaven
TTITLE7=Beautiful Flyaway
TTITLE8=Lay Down And Die, Goodbye
EXTD=
EXTT0=
EXTT1=
EXTT2=
EXTT3=
EXTT4=
EXTT5=
EXTT6=
EXTT7=
EXTT8=
PLAYORDER=
